<svg width="376" height="275" viewBox="0 0 376 275" fill="none" xmlns="http://www.w3.org/2000/svg">
<path d="M177.26 256V243.04H182.381C182.507 243.04 182.657 243.046 182.831 243.058C183.005 243.064 183.173 243.082 183.335 243.112C184.037 243.22 184.625 243.46 185.099 243.832C185.579 244.204 185.939 244.675 186.179 245.245C186.419 245.809 186.539 246.436 186.539 247.126C186.539 247.81 186.416 248.437 186.17 249.007C185.93 249.571 185.57 250.042 185.09 250.42C184.616 250.792 184.031 251.032 183.335 251.14C183.173 251.164 183.005 251.182 182.831 251.194C182.657 251.206 182.507 251.212 182.381 251.212H178.862V256H177.26ZM178.862 249.691H182.327C182.441 249.691 182.57 249.685 182.714 249.673C182.864 249.661 183.005 249.64 183.137 249.61C183.551 249.514 183.887 249.34 184.145 249.088C184.409 248.83 184.601 248.53 184.721 248.188C184.841 247.84 184.901 247.486 184.901 247.126C184.901 246.766 184.841 246.415 184.721 246.073C184.601 245.725 184.409 245.422 184.145 245.164C183.887 244.906 183.551 244.732 183.137 244.642C183.005 244.606 182.864 244.585 182.714 244.579C182.57 244.567 182.441 244.561 182.327 244.561H178.862V249.691ZM188.334 256V246.28H189.765V248.629L189.531 248.323C189.645 248.023 189.792 247.747 189.972 247.495C190.158 247.243 190.365 247.036 190.593 246.874C190.845 246.67 191.13 246.514 191.448 246.406C191.766 246.298 192.09 246.235 192.42 246.217C192.75 246.193 193.059 246.214 193.347 246.28V247.783C193.011 247.693 192.642 247.669 192.24 247.711C191.838 247.753 191.466 247.9 191.124 248.152C190.812 248.374 190.569 248.644 190.395 248.962C190.227 249.28 190.11 249.625 190.044 249.997C189.978 250.363 189.945 250.738 189.945 251.122V256H188.334ZM199.013 256.27C198.047 256.27 197.213 256.051 196.511 255.613C195.815 255.175 195.278 254.569 194.9 253.795C194.522 253.021 194.333 252.133 194.333 251.131C194.333 250.111 194.525 249.217 194.909 248.449C195.293 247.681 195.836 247.084 196.538 246.658C197.24 246.226 198.065 246.01 199.013 246.01C199.985 246.01 200.822 246.229 201.524 246.667C202.226 247.099 202.763 247.702 203.135 248.476C203.513 249.244 203.702 250.129 203.702 251.131C203.702 252.145 203.513 253.039 203.135 253.813C202.757 254.581 202.217 255.184 201.515 255.622C200.813 256.054 199.979 256.27 199.013 256.27ZM199.013 254.749C200.021 254.749 200.771 254.413 201.263 253.741C201.755 253.069 202.001 252.199 202.001 251.131C202.001 250.033 201.752 249.16 201.254 248.512C200.756 247.858 200.009 247.531 199.013 247.531C198.335 247.531 197.777 247.684 197.339 247.99C196.901 248.296 196.574 248.719 196.358 249.259C196.142 249.799 196.034 250.423 196.034 251.131C196.034 252.223 196.286 253.099 196.79 253.759C197.294 254.419 198.035 254.749 199.013 254.749ZM209.617 260.59C209.107 260.59 208.609 260.512 208.123 260.356C207.637 260.2 207.19 259.963 206.782 259.645C206.38 259.333 206.044 258.937 205.774 258.457L207.241 257.683C207.481 258.157 207.82 258.502 208.258 258.718C208.702 258.934 209.158 259.042 209.626 259.042C210.244 259.042 210.757 258.928 211.165 258.7C211.573 258.478 211.873 258.145 212.065 257.701C212.263 257.257 212.359 256.705 212.353 256.045V253.39H212.542V246.28H213.964V256.063C213.964 256.327 213.955 256.582 213.937 256.828C213.925 257.074 213.895 257.317 213.847 257.557C213.721 258.247 213.472 258.814 213.1 259.258C212.728 259.708 212.248 260.041 211.66 260.257C211.072 260.479 210.391 260.59 209.617 260.59ZM209.5 256.27C208.594 256.27 207.817 256.045 207.169 255.595C206.521 255.139 206.02 254.524 205.666 253.75C205.318 252.976 205.144 252.103 205.144 251.131C205.144 250.159 205.318 249.286 205.666 248.512C206.02 247.738 206.521 247.129 207.169 246.685C207.817 246.235 208.591 246.01 209.491 246.01C210.409 246.01 211.18 246.232 211.804 246.676C212.428 247.12 212.899 247.729 213.217 248.503C213.541 249.277 213.703 250.153 213.703 251.131C213.703 252.097 213.541 252.97 213.217 253.75C212.899 254.524 212.428 255.139 211.804 255.595C211.18 256.045 210.412 256.27 209.5 256.27ZM209.698 254.803C210.352 254.803 210.889 254.647 211.309 254.335C211.729 254.017 212.038 253.582 212.236 253.03C212.44 252.472 212.542 251.839 212.542 251.131C212.542 250.411 212.44 249.778 212.236 249.232C212.038 248.68 211.732 248.251 211.318 247.945C210.904 247.633 210.379 247.477 209.743 247.477C209.083 247.477 208.537 247.639 208.105 247.963C207.679 248.287 207.361 248.725 207.151 249.277C206.947 249.829 206.845 250.447 206.845 251.131C206.845 251.821 206.95 252.445 207.16 253.003C207.37 253.555 207.685 253.993 208.105 254.317C208.531 254.641 209.062 254.803 209.698 254.803ZM216.477 256V246.28H217.908V248.629L217.674 248.323C217.788 248.023 217.935 247.747 218.115 247.495C218.301 247.243 218.508 247.036 218.736 246.874C218.988 246.67 219.273 246.514 219.591 246.406C219.909 246.298 220.233 246.235 220.563 246.217C220.893 246.193 221.202 246.214 221.49 246.28V247.783C221.154 247.693 220.785 247.669 220.383 247.711C219.981 247.753 219.609 247.9 219.267 248.152C218.955 248.374 218.712 248.644 218.538 248.962C218.37 249.28 218.253 249.625 218.187 249.997C218.121 250.363 218.088 250.738 218.088 251.122V256H216.477ZM227.228 256.27C226.274 256.27 225.44 256.06 224.726 255.64C224.018 255.214 223.466 254.623 223.07 253.867C222.674 253.105 222.476 252.217 222.476 251.203C222.476 250.141 222.671 249.223 223.061 248.449C223.451 247.669 223.994 247.069 224.69 246.649C225.392 246.223 226.214 246.01 227.156 246.01C228.134 246.01 228.965 246.235 229.649 246.685C230.339 247.135 230.855 247.777 231.197 248.611C231.545 249.445 231.695 250.438 231.647 251.59H230.027V251.014C230.009 249.82 229.766 248.929 229.298 248.341C228.83 247.747 228.134 247.45 227.21 247.45C226.22 247.45 225.467 247.768 224.951 248.404C224.435 249.04 224.177 249.952 224.177 251.14C224.177 252.286 224.435 253.174 224.951 253.804C225.467 254.434 226.202 254.749 227.156 254.749C227.798 254.749 228.356 254.602 228.83 254.308C229.304 254.014 229.676 253.591 229.946 253.039L231.485 253.57C231.107 254.428 230.537 255.094 229.775 255.568C229.019 256.036 228.17 256.27 227.228 256.27ZM223.637 251.59V250.303H230.819V251.59H223.637ZM237.323 256.261C236.165 256.261 235.214 256.009 234.47 255.505C233.732 254.995 233.279 254.284 233.111 253.372L234.749 253.111C234.881 253.639 235.184 254.059 235.658 254.371C236.132 254.677 236.72 254.83 237.422 254.83C238.088 254.83 238.61 254.692 238.988 254.416C239.366 254.14 239.555 253.765 239.555 253.291C239.555 253.015 239.492 252.793 239.366 252.625C239.24 252.451 238.979 252.289 238.583 252.139C238.193 251.989 237.602 251.809 236.81 251.599C235.952 251.371 235.277 251.134 234.785 250.888C234.293 250.642 233.942 250.357 233.732 250.033C233.522 249.709 233.417 249.316 233.417 248.854C233.417 248.284 233.573 247.786 233.885 247.36C234.197 246.928 234.632 246.595 235.19 246.361C235.754 246.127 236.408 246.01 237.152 246.01C237.89 246.01 238.55 246.127 239.132 246.361C239.714 246.595 240.182 246.928 240.536 247.36C240.896 247.786 241.109 248.284 241.175 248.854L239.537 249.151C239.459 248.629 239.207 248.218 238.781 247.918C238.361 247.618 237.818 247.459 237.152 247.441C236.522 247.417 236.009 247.528 235.613 247.774C235.223 248.02 235.028 248.353 235.028 248.773C235.028 249.007 235.1 249.208 235.244 249.376C235.394 249.544 235.667 249.703 236.063 249.853C236.465 250.003 237.047 250.174 237.809 250.366C238.667 250.582 239.342 250.819 239.834 251.077C240.332 251.329 240.686 251.629 240.896 251.977C241.106 252.319 241.211 252.742 241.211 253.246C241.211 254.182 240.866 254.92 240.176 255.46C239.486 255.994 238.535 256.261 237.323 256.261ZM246.868 256.261C245.71 256.261 244.759 256.009 244.015 255.505C243.277 254.995 242.824 254.284 242.656 253.372L244.294 253.111C244.426 253.639 244.729 254.059 245.203 254.371C245.677 254.677 246.265 254.83 246.967 254.83C247.633 254.83 248.155 254.692 248.533 254.416C248.911 254.14 249.1 253.765 249.1 253.291C249.1 253.015 249.037 252.793 248.911 252.625C248.785 252.451 248.524 252.289 248.128 252.139C247.738 251.989 247.147 251.809 246.355 251.599C245.497 251.371 244.822 251.134 244.33 250.888C243.838 250.642 243.487 250.357 243.277 250.033C243.067 249.709 242.962 249.316 242.962 248.854C242.962 248.284 243.118 247.786 243.43 247.36C243.742 246.928 244.177 246.595 244.735 246.361C245.299 246.127 245.953 246.01 246.697 246.01C247.435 246.01 248.095 246.127 248.677 246.361C249.259 246.595 249.727 246.928 250.081 247.36C250.441 247.786 250.654 248.284 250.72 248.854L249.082 249.151C249.004 248.629 248.752 248.218 248.326 247.918C247.906 247.618 247.363 247.459 246.697 247.441C246.067 247.417 245.554 247.528 245.158 247.774C244.768 248.02 244.573 248.353 244.573 248.773C244.573 249.007 244.645 249.208 244.789 249.376C244.939 249.544 245.212 249.703 245.608 249.853C246.01 250.003 246.592 250.174 247.354 250.366C248.212 250.582 248.887 250.819 249.379 251.077C249.877 251.329 250.231 251.629 250.441 251.977C250.651 252.319 250.756 252.742 250.756 253.246C250.756 254.182 250.411 254.92 249.721 255.46C249.031 255.994 248.08 256.261 246.868 256.261ZM253.46 254.65V252.886H255.224V254.65H253.46ZM253.469 249.394V247.63H255.233V249.394H253.469ZM266.361 256.27C265.521 256.27 264.771 256.081 264.111 255.703C263.457 255.319 262.938 254.8 262.554 254.146C262.176 253.486 261.987 252.736 261.987 251.896V247.144C261.987 246.304 262.176 245.554 262.554 244.894C262.938 244.234 263.457 243.715 264.111 243.337C264.771 242.959 265.521 242.77 266.361 242.77C267.201 242.77 267.951 242.959 268.611 243.337C269.271 243.715 269.79 244.234 270.168 244.894C270.546 245.554 270.735 246.304 270.735 247.144V251.896C270.735 252.736 270.546 253.486 270.168 254.146C269.79 254.8 269.271 255.319 268.611 255.703C267.951 256.081 267.201 256.27 266.361 256.27ZM266.361 254.731C266.871 254.731 267.333 254.608 267.747 254.362C268.161 254.116 268.491 253.786 268.737 253.372C268.983 252.952 269.106 252.49 269.106 251.986V247.045C269.106 246.535 268.983 246.073 268.737 245.659C268.491 245.245 268.161 244.915 267.747 244.669C267.333 244.423 266.871 244.3 266.361 244.3C265.857 244.3 265.395 244.423 264.975 244.669C264.561 244.915 264.231 245.245 263.985 245.659C263.739 246.073 263.616 246.535 263.616 247.045V251.986C263.616 252.49 263.739 252.952 263.985 253.372C264.231 253.786 264.561 254.116 264.975 254.362C265.395 254.608 265.857 254.731 266.361 254.731ZM274.694 256L273.614 254.92L285.512 243.04L286.592 244.12L274.694 256ZM283.892 256.27C283.298 256.27 282.755 256.126 282.263 255.838C281.777 255.544 281.387 255.154 281.093 254.668C280.799 254.176 280.652 253.63 280.652 253.03C280.652 252.442 280.802 251.902 281.102 251.41C281.402 250.918 281.798 250.525 282.29 250.231C282.782 249.937 283.316 249.79 283.892 249.79C284.486 249.79 285.029 249.937 285.521 250.231C286.013 250.519 286.403 250.909 286.691 251.401C286.985 251.887 287.132 252.43 287.132 253.03C287.132 253.63 286.985 254.176 286.691 254.668C286.403 255.154 286.013 255.544 285.521 255.838C285.029 256.126 284.486 256.27 283.892 256.27ZM283.892 254.857C284.222 254.857 284.525 254.773 284.801 254.605C285.083 254.437 285.305 254.215 285.467 253.939C285.635 253.663 285.719 253.36 285.719 253.03C285.719 252.7 285.635 252.397 285.467 252.121C285.305 251.839 285.083 251.617 284.801 251.455C284.525 251.287 284.222 251.203 283.892 251.203C283.562 251.203 283.259 251.287 282.983 251.455C282.707 251.617 282.485 251.839 282.317 252.121C282.149 252.397 282.065 252.7 282.065 253.03C282.065 253.36 282.149 253.663 282.317 253.939C282.485 254.215 282.707 254.437 282.983 254.605C283.259 254.773 283.562 254.857 283.892 254.857ZM276.314 249.25C275.72 249.25 275.177 249.106 274.685 248.818C274.193 248.524 273.8 248.134 273.506 247.648C273.218 247.156 273.074 246.61 273.074 246.01C273.074 245.422 273.224 244.882 273.524 244.39C273.824 243.898 274.22 243.505 274.712 243.211C275.204 242.917 275.738 242.77 276.314 242.77C276.908 242.77 277.448 242.917 277.934 243.211C278.426 243.499 278.819 243.889 279.113 244.381C279.407 244.867 279.554 245.41 279.554 246.01C279.554 246.61 279.407 247.156 279.113 247.648C278.819 248.134 278.426 248.524 277.934 248.818C277.448 249.106 276.908 249.25 276.314 249.25ZM276.314 247.837C276.644 247.837 276.947 247.753 277.223 247.585C277.505 247.417 277.727 247.195 277.889 246.919C278.057 246.643 278.141 246.34 278.141 246.01C278.141 245.68 278.057 245.377 277.889 245.101C277.727 244.819 277.505 244.597 277.223 244.435C276.947 244.267 276.644 244.183 276.314 244.183C275.984 244.183 275.681 244.267 275.405 244.435C275.129 244.597 274.907 244.819 274.739 245.101C274.571 245.377 274.487 245.68 274.487 246.01C274.487 246.34 274.571 246.643 274.739 246.919C274.907 247.195 275.129 247.417 275.405 247.585C275.681 247.753 275.984 247.837 276.314 247.837Z" fill="black"/>
<rect x="1" y="215" width="298" height="13" rx="1" fill="white" stroke="black" stroke-width="2"/>
<rect x="175" y="102" width="98" height="95" fill="white" stroke="black" stroke-width="2"/>
<path d="M171.204 100.75L224 87.0332L276.796 100.75H171.204Z" fill="white" stroke="black" stroke-width="2"/>
<rect x="86.0002" y="1" width="16" height="198" stroke="black" stroke-width="2"/>
<line x1="54.0002" y1="17" x2="54.0002" y2="32" stroke="black" stroke-width="2"/>
<line x1="193" y1="34" x2="193" y2="55" stroke="black" stroke-width="2"/>
<line x1="202" y1="24" x2="202" y2="34" stroke="black" stroke-width="2"/>
<line x1="87.14" y1="12.9902" x2="53.1398" y2="17.7907" stroke="black" stroke-width="2"/>
<line x1="53.0002" y1="33" x2="203" y2="33" stroke="black" stroke-width="2"/>
<line x1="86.0853" y1="14.0036" x2="203.085" y2="24.0036" stroke="black" stroke-width="2"/>
<rect x="182.5" y="54.5" width="20" height="12" fill="#B02E0C" stroke="black"/>
<line y1="199.5" x2="300" y2="199.5" stroke="black" stroke-width="3"/>
</svg>
