<svg width="376" height="275" viewBox="0 0 376 275" fill="none" xmlns="http://www.w3.org/2000/svg">
<path d="M177.26 256V243.04H182.381C182.507 243.04 182.657 243.046 182.831 243.058C183.005 243.064 183.173 243.082 183.335 243.112C184.037 243.22 184.625 243.46 185.099 243.832C185.579 244.204 185.939 244.675 186.179 245.245C186.419 245.809 186.539 246.436 186.539 247.126C186.539 247.81 186.416 248.437 186.17 249.007C185.93 249.571 185.57 250.042 185.09 250.42C184.616 250.792 184.031 251.032 183.335 251.14C183.173 251.164 183.005 251.182 182.831 251.194C182.657 251.206 182.507 251.212 182.381 251.212H178.862V256H177.26ZM178.862 249.691H182.327C182.441 249.691 182.57 249.685 182.714 249.673C182.864 249.661 183.005 249.64 183.137 249.61C183.551 249.514 183.887 249.34 184.145 249.088C184.409 248.83 184.601 248.53 184.721 248.188C184.841 247.84 184.901 247.486 184.901 247.126C184.901 246.766 184.841 246.415 184.721 246.073C184.601 245.725 184.409 245.422 184.145 245.164C183.887 244.906 183.551 244.732 183.137 244.642C183.005 244.606 182.864 244.585 182.714 244.579C182.57 244.567 182.441 244.561 182.327 244.561H178.862V249.691ZM188.334 256V246.28H189.765V248.629L189.531 248.323C189.645 248.023 189.792 247.747 189.972 247.495C190.158 247.243 190.365 247.036 190.593 246.874C190.845 246.67 191.13 246.514 191.448 246.406C191.766 246.298 192.09 246.235 192.42 246.217C192.75 246.193 193.059 246.214 193.347 246.28V247.783C193.011 247.693 192.642 247.669 192.24 247.711C191.838 247.753 191.466 247.9 191.124 248.152C190.812 248.374 190.569 248.644 190.395 248.962C190.227 249.28 190.11 249.625 190.044 249.997C189.978 250.363 189.945 250.738 189.945 251.122V256H188.334ZM199.013 256.27C198.047 256.27 197.213 256.051 196.511 255.613C195.815 255.175 195.278 254.569 194.9 253.795C194.522 253.021 194.333 252.133 194.333 251.131C194.333 250.111 194.525 249.217 194.909 248.449C195.293 247.681 195.836 247.084 196.538 246.658C197.24 246.226 198.065 246.01 199.013 246.01C199.985 246.01 200.822 246.229 201.524 246.667C202.226 247.099 202.763 247.702 203.135 248.476C203.513 249.244 203.702 250.129 203.702 251.131C203.702 252.145 203.513 253.039 203.135 253.813C202.757 254.581 202.217 255.184 201.515 255.622C200.813 256.054 199.979 256.27 199.013 256.27ZM199.013 254.749C200.021 254.749 200.771 254.413 201.263 253.741C201.755 253.069 202.001 252.199 202.001 251.131C202.001 250.033 201.752 249.16 201.254 248.512C200.756 247.858 200.009 247.531 199.013 247.531C198.335 247.531 197.777 247.684 197.339 247.99C196.901 248.296 196.574 248.719 196.358 249.259C196.142 249.799 196.034 250.423 196.034 251.131C196.034 252.223 196.286 253.099 196.79 253.759C197.294 254.419 198.035 254.749 199.013 254.749ZM209.617 260.59C209.107 260.59 208.609 260.512 208.123 260.356C207.637 260.2 207.19 259.963 206.782 259.645C206.38 259.333 206.044 258.937 205.774 258.457L207.241 257.683C207.481 258.157 207.82 258.502 208.258 258.718C208.702 258.934 209.158 259.042 209.626 259.042C210.244 259.042 210.757 258.928 211.165 258.7C211.573 258.478 211.873 258.145 212.065 257.701C212.263 257.257 212.359 256.705 212.353 256.045V253.39H212.542V246.28H213.964V256.063C213.964 256.327 213.955 256.582 213.937 256.828C213.925 257.074 213.895 257.317 213.847 257.557C213.721 258.247 213.472 258.814 213.1 259.258C212.728 259.708 212.248 260.041 211.66 260.257C211.072 260.479 210.391 260.59 209.617 260.59ZM209.5 256.27C208.594 256.27 207.817 256.045 207.169 255.595C206.521 255.139 206.02 254.524 205.666 253.75C205.318 252.976 205.144 252.103 205.144 251.131C205.144 250.159 205.318 249.286 205.666 248.512C206.02 247.738 206.521 247.129 207.169 246.685C207.817 246.235 208.591 246.01 209.491 246.01C210.409 246.01 211.18 246.232 211.804 246.676C212.428 247.12 212.899 247.729 213.217 248.503C213.541 249.277 213.703 250.153 213.703 251.131C213.703 252.097 213.541 252.97 213.217 253.75C212.899 254.524 212.428 255.139 211.804 255.595C211.18 256.045 210.412 256.27 209.5 256.27ZM209.698 254.803C210.352 254.803 210.889 254.647 211.309 254.335C211.729 254.017 212.038 253.582 212.236 253.03C212.44 252.472 212.542 251.839 212.542 251.131C212.542 250.411 212.44 249.778 212.236 249.232C212.038 248.68 211.732 248.251 211.318 247.945C210.904 247.633 210.379 247.477 209.743 247.477C209.083 247.477 208.537 247.639 208.105 247.963C207.679 248.287 207.361 248.725 207.151 249.277C206.947 249.829 206.845 250.447 206.845 251.131C206.845 251.821 206.95 252.445 207.16 253.003C207.37 253.555 207.685 253.993 208.105 254.317C208.531 254.641 209.062 254.803 209.698 254.803ZM216.477 256V246.28H217.908V248.629L217.674 248.323C217.788 248.023 217.935 247.747 218.115 247.495C218.301 247.243 218.508 247.036 218.736 246.874C218.988 246.67 219.273 246.514 219.591 246.406C219.909 246.298 220.233 246.235 220.563 246.217C220.893 246.193 221.202 246.214 221.49 246.28V247.783C221.154 247.693 220.785 247.669 220.383 247.711C219.981 247.753 219.609 247.9 219.267 248.152C218.955 248.374 218.712 248.644 218.538 248.962C218.37 249.28 218.253 249.625 218.187 249.997C218.121 250.363 218.088 250.738 218.088 251.122V256H216.477ZM227.228 256.27C226.274 256.27 225.44 256.06 224.726 255.64C224.018 255.214 223.466 254.623 223.07 253.867C222.674 253.105 222.476 252.217 222.476 251.203C222.476 250.141 222.671 249.223 223.061 248.449C223.451 247.669 223.994 247.069 224.69 246.649C225.392 246.223 226.214 246.01 227.156 246.01C228.134 246.01 228.965 246.235 229.649 246.685C230.339 247.135 230.855 247.777 231.197 248.611C231.545 249.445 231.695 250.438 231.647 251.59H230.027V251.014C230.009 249.82 229.766 248.929 229.298 248.341C228.83 247.747 228.134 247.45 227.21 247.45C226.22 247.45 225.467 247.768 224.951 248.404C224.435 249.04 224.177 249.952 224.177 251.14C224.177 252.286 224.435 253.174 224.951 253.804C225.467 254.434 226.202 254.749 227.156 254.749C227.798 254.749 228.356 254.602 228.83 254.308C229.304 254.014 229.676 253.591 229.946 253.039L231.485 253.57C231.107 254.428 230.537 255.094 229.775 255.568C229.019 256.036 228.17 256.27 227.228 256.27ZM223.637 251.59V250.303H230.819V251.59H223.637ZM237.323 256.261C236.165 256.261 235.214 256.009 234.47 255.505C233.732 254.995 233.279 254.284 233.111 253.372L234.749 253.111C234.881 253.639 235.184 254.059 235.658 254.371C236.132 254.677 236.72 254.83 237.422 254.83C238.088 254.83 238.61 254.692 238.988 254.416C239.366 254.14 239.555 253.765 239.555 253.291C239.555 253.015 239.492 252.793 239.366 252.625C239.24 252.451 238.979 252.289 238.583 252.139C238.193 251.989 237.602 251.809 236.81 251.599C235.952 251.371 235.277 251.134 234.785 250.888C234.293 250.642 233.942 250.357 233.732 250.033C233.522 249.709 233.417 249.316 233.417 248.854C233.417 248.284 233.573 247.786 233.885 247.36C234.197 246.928 234.632 246.595 235.19 246.361C235.754 246.127 236.408 246.01 237.152 246.01C237.89 246.01 238.55 246.127 239.132 246.361C239.714 246.595 240.182 246.928 240.536 247.36C240.896 247.786 241.109 248.284 241.175 248.854L239.537 249.151C239.459 248.629 239.207 248.218 238.781 247.918C238.361 247.618 237.818 247.459 237.152 247.441C236.522 247.417 236.009 247.528 235.613 247.774C235.223 248.02 235.028 248.353 235.028 248.773C235.028 249.007 235.1 249.208 235.244 249.376C235.394 249.544 235.667 249.703 236.063 249.853C236.465 250.003 237.047 250.174 237.809 250.366C238.667 250.582 239.342 250.819 239.834 251.077C240.332 251.329 240.686 251.629 240.896 251.977C241.106 252.319 241.211 252.742 241.211 253.246C241.211 254.182 240.866 254.92 240.176 255.46C239.486 255.994 238.535 256.261 237.323 256.261ZM246.868 256.261C245.71 256.261 244.759 256.009 244.015 255.505C243.277 254.995 242.824 254.284 242.656 253.372L244.294 253.111C244.426 253.639 244.729 254.059 245.203 254.371C245.677 254.677 246.265 254.83 246.967 254.83C247.633 254.83 248.155 254.692 248.533 254.416C248.911 254.14 249.1 253.765 249.1 253.291C249.1 253.015 249.037 252.793 248.911 252.625C248.785 252.451 248.524 252.289 248.128 252.139C247.738 251.989 247.147 251.809 246.355 251.599C245.497 251.371 244.822 251.134 244.33 250.888C243.838 250.642 243.487 250.357 243.277 250.033C243.067 249.709 242.962 249.316 242.962 248.854C242.962 248.284 243.118 247.786 243.43 247.36C243.742 246.928 244.177 246.595 244.735 246.361C245.299 246.127 245.953 246.01 246.697 246.01C247.435 246.01 248.095 246.127 248.677 246.361C249.259 246.595 249.727 246.928 250.081 247.36C250.441 247.786 250.654 248.284 250.72 248.854L249.082 249.151C249.004 248.629 248.752 248.218 248.326 247.918C247.906 247.618 247.363 247.459 246.697 247.441C246.067 247.417 245.554 247.528 245.158 247.774C244.768 248.02 244.573 248.353 244.573 248.773C244.573 249.007 244.645 249.208 244.789 249.376C244.939 249.544 245.212 249.703 245.608 249.853C246.01 250.003 246.592 250.174 247.354 250.366C248.212 250.582 248.887 250.819 249.379 251.077C249.877 251.329 250.231 251.629 250.441 251.977C250.651 252.319 250.756 252.742 250.756 253.246C250.756 254.182 250.411 254.92 249.721 255.46C249.031 255.994 248.08 256.261 246.868 256.261ZM253.46 254.65V252.886H255.224V254.65H253.46ZM253.469 249.394V247.63H255.233V249.394H253.469ZM265.821 256.27C265.155 256.27 264.534 256.132 263.958 255.856C263.388 255.58 262.899 255.202 262.491 254.722C262.089 254.236 261.801 253.678 261.627 253.048L263.166 252.634C263.274 253.06 263.466 253.429 263.742 253.741C264.018 254.047 264.339 254.287 264.705 254.461C265.077 254.629 265.464 254.713 265.866 254.713C266.394 254.713 266.868 254.587 267.288 254.335C267.714 254.077 268.05 253.738 268.296 253.318C268.542 252.892 268.665 252.427 268.665 251.923C268.665 251.401 268.536 250.93 268.278 250.51C268.026 250.084 267.687 249.748 267.261 249.502C266.835 249.256 266.37 249.133 265.866 249.133C265.296 249.133 264.807 249.253 264.399 249.493C263.997 249.727 263.679 250.015 263.445 250.357L262.023 249.817L262.419 243.04H269.376V244.561H263.193L263.904 243.895L263.571 249.322L263.22 248.863C263.58 248.479 264.009 248.182 264.507 247.972C265.011 247.762 265.524 247.657 266.046 247.657C266.85 247.657 267.57 247.846 268.206 248.224C268.842 248.596 269.346 249.106 269.718 249.754C270.09 250.396 270.276 251.119 270.276 251.923C270.276 252.721 270.072 253.45 269.664 254.11C269.256 254.764 268.713 255.289 268.035 255.685C267.363 256.075 266.625 256.27 265.821 256.27ZM276.802 256.27C275.962 256.27 275.212 256.081 274.552 255.703C273.898 255.319 273.379 254.8 272.995 254.146C272.617 253.486 272.428 252.736 272.428 251.896V247.144C272.428 246.304 272.617 245.554 272.995 244.894C273.379 244.234 273.898 243.715 274.552 243.337C275.212 242.959 275.962 242.77 276.802 242.77C277.642 242.77 278.392 242.959 279.052 243.337C279.712 243.715 280.231 244.234 280.609 244.894C280.987 245.554 281.176 246.304 281.176 247.144V251.896C281.176 252.736 280.987 253.486 280.609 254.146C280.231 254.8 279.712 255.319 279.052 255.703C278.392 256.081 277.642 256.27 276.802 256.27ZM276.802 254.731C277.312 254.731 277.774 254.608 278.188 254.362C278.602 254.116 278.932 253.786 279.178 253.372C279.424 252.952 279.547 252.49 279.547 251.986V247.045C279.547 246.535 279.424 246.073 279.178 245.659C278.932 245.245 278.602 244.915 278.188 244.669C277.774 244.423 277.312 244.3 276.802 244.3C276.298 244.3 275.836 244.423 275.416 244.669C275.002 244.915 274.672 245.245 274.426 245.659C274.18 246.073 274.057 246.535 274.057 247.045V251.986C274.057 252.49 274.18 252.952 274.426 253.372C274.672 253.786 275.002 254.116 275.416 254.362C275.836 254.608 276.298 254.731 276.802 254.731ZM285.136 256L284.056 254.92L295.954 243.04L297.034 244.12L285.136 256ZM294.334 256.27C293.74 256.27 293.197 256.126 292.705 255.838C292.219 255.544 291.829 255.154 291.535 254.668C291.241 254.176 291.094 253.63 291.094 253.03C291.094 252.442 291.244 251.902 291.544 251.41C291.844 250.918 292.24 250.525 292.732 250.231C293.224 249.937 293.758 249.79 294.334 249.79C294.928 249.79 295.471 249.937 295.963 250.231C296.455 250.519 296.845 250.909 297.133 251.401C297.427 251.887 297.574 252.43 297.574 253.03C297.574 253.63 297.427 254.176 297.133 254.668C296.845 255.154 296.455 255.544 295.963 255.838C295.471 256.126 294.928 256.27 294.334 256.27ZM294.334 254.857C294.664 254.857 294.967 254.773 295.243 254.605C295.525 254.437 295.747 254.215 295.909 253.939C296.077 253.663 296.161 253.36 296.161 253.03C296.161 252.7 296.077 252.397 295.909 252.121C295.747 251.839 295.525 251.617 295.243 251.455C294.967 251.287 294.664 251.203 294.334 251.203C294.004 251.203 293.701 251.287 293.425 251.455C293.149 251.617 292.927 251.839 292.759 252.121C292.591 252.397 292.507 252.7 292.507 253.03C292.507 253.36 292.591 253.663 292.759 253.939C292.927 254.215 293.149 254.437 293.425 254.605C293.701 254.773 294.004 254.857 294.334 254.857ZM286.756 249.25C286.162 249.25 285.619 249.106 285.127 248.818C284.635 248.524 284.242 248.134 283.948 247.648C283.66 247.156 283.516 246.61 283.516 246.01C283.516 245.422 283.666 244.882 283.966 244.39C284.266 243.898 284.662 243.505 285.154 243.211C285.646 242.917 286.18 242.77 286.756 242.77C287.35 242.77 287.89 242.917 288.376 243.211C288.868 243.499 289.261 243.889 289.555 244.381C289.849 244.867 289.996 245.41 289.996 246.01C289.996 246.61 289.849 247.156 289.555 247.648C289.261 248.134 288.868 248.524 288.376 248.818C287.89 249.106 287.35 249.25 286.756 249.25ZM286.756 247.837C287.086 247.837 287.389 247.753 287.665 247.585C287.947 247.417 288.169 247.195 288.331 246.919C288.499 246.643 288.583 246.34 288.583 246.01C288.583 245.68 288.499 245.377 288.331 245.101C288.169 244.819 287.947 244.597 287.665 244.435C287.389 244.267 287.086 244.183 286.756 244.183C286.426 244.183 286.123 244.267 285.847 244.435C285.571 244.597 285.349 244.819 285.181 245.101C285.013 245.377 284.929 245.68 284.929 246.01C284.929 246.34 285.013 246.643 285.181 246.919C285.349 247.195 285.571 247.417 285.847 247.585C286.123 247.753 286.426 247.837 286.756 247.837Z" fill="black"/>
<rect x="1" y="215" width="298" height="13" rx="1" fill="white" stroke="black" stroke-width="2"/>
<rect y="214" width="150" height="15" rx="2" fill="#B02E0C"/>
<rect x="175" y="102" width="98" height="95" fill="white" stroke="black" stroke-width="2"/>
<path d="M171.204 100.75L224 87.0332L276.796 100.75H171.204Z" fill="white" stroke="black" stroke-width="2"/>
<rect x="86.0002" y="1" width="16" height="198" stroke="black" stroke-width="2"/>
<line x1="54.0002" y1="17" x2="54.0002" y2="32" stroke="black" stroke-width="2"/>
<line x1="191.5" y1="136.002" x2="191.5" y2="33.9975" stroke="black" stroke-width="2"/>
<line x1="202" y1="24" x2="202" y2="34" stroke="black" stroke-width="2"/>
<line x1="87.14" y1="12.9902" x2="53.1399" y2="17.7907" stroke="black" stroke-width="2"/>
<line x1="53.0002" y1="33" x2="203" y2="33" stroke="black" stroke-width="2"/>
<line x1="86.0854" y1="14.0036" x2="203.085" y2="24.0036" stroke="black" stroke-width="2"/>
<rect x="182.5" y="136.5" width="20" height="12" fill="#B02E0C" stroke="black"/>
<line y1="199.5" x2="300" y2="199.5" stroke="black" stroke-width="3"/>
<rect x="174.5" y="173.5" width="99" height="12" fill="#B02E0C" stroke="black"/>
<rect x="174.5" y="185.5" width="99" height="12" fill="#B02E0C" stroke="black"/>
<line x1="184.5" y1="185" x2="184.5" y2="198" stroke="black"/>
<line x1="193.5" y1="173" x2="193.5" y2="186" stroke="black"/>
<line x1="204.5" y1="185" x2="204.5" y2="198" stroke="black"/>
<line x1="213.5" y1="173" x2="213.5" y2="186" stroke="black"/>
<line x1="224.5" y1="185" x2="224.5" y2="198" stroke="black"/>
<line x1="233.5" y1="173" x2="233.5" y2="186" stroke="black"/>
<line x1="244.5" y1="185" x2="244.5" y2="198" stroke="black"/>
<line x1="264.5" y1="185" x2="264.5" y2="198" stroke="black"/>
<line x1="253.5" y1="173" x2="253.5" y2="186" stroke="black"/>
<rect x="174.5" y="149.5" width="99" height="12" fill="#B02E0C" stroke="black"/>
<rect x="174.5" y="161.5" width="99" height="12" fill="#B02E0C" stroke="black"/>
<line x1="184.5" y1="161" x2="184.5" y2="174" stroke="black"/>
<line x1="193.5" y1="149" x2="193.5" y2="162" stroke="black"/>
<line x1="204.5" y1="161" x2="204.5" y2="174" stroke="black"/>
<line x1="213.5" y1="149" x2="213.5" y2="162" stroke="black"/>
<line x1="224.5" y1="161" x2="224.5" y2="174" stroke="black"/>
<line x1="233.5" y1="149" x2="233.5" y2="162" stroke="black"/>
<line x1="244.5" y1="161" x2="244.5" y2="174" stroke="black"/>
<line x1="264.5" y1="161" x2="264.5" y2="174" stroke="black"/>
<line x1="253.5" y1="149" x2="253.5" y2="162" stroke="black"/>
</svg>
