<svg width="376" height="275" viewBox="0 0 376 275" fill="none" xmlns="http://www.w3.org/2000/svg">
<path d="M177.53 254V241.22H182.858C183.422 241.22 183.938 241.34 184.406 241.58C184.874 241.808 185.282 242.12 185.63 242.516C185.978 242.9 186.248 243.338 186.44 243.83C186.632 244.31 186.728 244.802 186.728 245.306C186.728 246.002 186.572 246.668 186.26 247.304C185.948 247.928 185.51 248.438 184.946 248.834C184.382 249.218 183.722 249.41 182.966 249.41H179.15V254H177.53ZM179.15 247.97H182.876C183.32 247.97 183.704 247.85 184.028 247.61C184.364 247.37 184.622 247.046 184.802 246.638C184.994 246.23 185.09 245.786 185.09 245.306C185.09 244.802 184.982 244.352 184.766 243.956C184.55 243.548 184.268 243.23 183.92 243.002C183.572 242.774 183.188 242.66 182.768 242.66H179.15V247.97ZM193.461 245.99C192.669 246.002 191.967 246.206 191.355 246.602C190.755 246.986 190.329 247.52 190.077 248.204V254H188.493V244.604H189.969V246.782C190.293 246.134 190.719 245.612 191.247 245.216C191.787 244.808 192.351 244.58 192.939 244.532C193.059 244.532 193.161 244.532 193.245 244.532C193.329 244.532 193.401 244.538 193.461 244.55V245.99ZM198.907 254.18C198.199 254.18 197.557 254.054 196.981 253.802C196.405 253.538 195.907 253.184 195.487 252.74C195.067 252.284 194.743 251.762 194.515 251.174C194.287 250.586 194.173 249.968 194.173 249.32C194.173 248.66 194.287 248.036 194.515 247.448C194.743 246.86 195.067 246.344 195.487 245.9C195.907 245.444 196.405 245.09 196.981 244.838C197.569 244.574 198.211 244.442 198.907 244.442C199.615 244.442 200.257 244.574 200.833 244.838C201.409 245.09 201.907 245.444 202.327 245.9C202.759 246.344 203.089 246.86 203.317 247.448C203.545 248.036 203.659 248.66 203.659 249.32C203.659 249.968 203.545 250.586 203.317 251.174C203.089 251.762 202.765 252.284 202.345 252.74C201.925 253.184 201.421 253.538 200.833 253.802C200.257 254.054 199.615 254.18 198.907 254.18ZM195.793 249.338C195.793 249.986 195.931 250.574 196.207 251.102C196.495 251.63 196.873 252.05 197.341 252.362C197.809 252.662 198.331 252.812 198.907 252.812C199.483 252.812 200.005 252.656 200.473 252.344C200.953 252.032 201.331 251.612 201.607 251.084C201.895 250.544 202.039 249.95 202.039 249.302C202.039 248.654 201.895 248.066 201.607 247.538C201.331 247.01 200.953 246.59 200.473 246.278C200.005 245.966 199.483 245.81 198.907 245.81C198.331 245.81 197.809 245.972 197.341 246.296C196.873 246.608 196.495 247.028 196.207 247.556C195.931 248.084 195.793 248.678 195.793 249.338ZM209.323 254.108C208.687 254.108 208.099 253.982 207.559 253.73C207.031 253.466 206.575 253.112 206.191 252.668C205.807 252.212 205.507 251.696 205.291 251.12C205.087 250.544 204.985 249.944 204.985 249.32C204.985 248.66 205.087 248.036 205.291 247.448C205.507 246.86 205.807 246.344 206.191 245.9C206.587 245.444 207.049 245.09 207.577 244.838C208.105 244.574 208.693 244.442 209.341 244.442C210.121 244.442 210.799 244.634 211.375 245.018C211.963 245.402 212.455 245.888 212.851 246.476V244.604H214.255V253.892C214.255 254.78 214.039 255.53 213.607 256.142C213.187 256.754 212.611 257.216 211.879 257.528C211.159 257.852 210.355 258.014 209.467 258.014C208.411 258.014 207.547 257.828 206.875 257.456C206.203 257.084 205.645 256.58 205.201 255.944L206.119 255.134C206.491 255.686 206.971 256.1 207.559 256.376C208.159 256.652 208.795 256.79 209.467 256.79C210.043 256.79 210.571 256.682 211.051 256.466C211.543 256.262 211.933 255.944 212.221 255.512C212.521 255.08 212.671 254.54 212.671 253.892V252.236C212.323 252.812 211.843 253.268 211.231 253.604C210.631 253.94 209.995 254.108 209.323 254.108ZM209.809 252.812C210.145 252.812 210.469 252.752 210.781 252.632C211.093 252.512 211.381 252.356 211.645 252.164C211.909 251.96 212.131 251.732 212.311 251.48C212.491 251.228 212.611 250.97 212.671 250.706V248.006C212.503 247.574 212.263 247.196 211.951 246.872C211.639 246.536 211.285 246.278 210.889 246.098C210.493 245.906 210.085 245.81 209.665 245.81C209.185 245.81 208.753 245.912 208.369 246.116C207.997 246.32 207.679 246.596 207.415 246.944C207.151 247.28 206.947 247.658 206.803 248.078C206.659 248.498 206.587 248.924 206.587 249.356C206.587 249.824 206.671 250.268 206.839 250.688C207.007 251.096 207.235 251.462 207.523 251.786C207.811 252.11 208.153 252.362 208.549 252.542C208.945 252.722 209.365 252.812 209.809 252.812ZM221.779 245.99C220.987 246.002 220.285 246.206 219.673 246.602C219.073 246.986 218.647 247.52 218.395 248.204V254H216.811V244.604H218.287V246.782C218.611 246.134 219.037 245.612 219.565 245.216C220.105 244.808 220.669 244.58 221.257 244.532C221.377 244.532 221.479 244.532 221.563 244.532C221.647 244.532 221.719 244.538 221.779 244.55V245.99ZM227.28 254.18C226.572 254.18 225.924 254.054 225.336 253.802C224.76 253.538 224.256 253.184 223.824 252.74C223.404 252.284 223.074 251.762 222.834 251.174C222.606 250.586 222.492 249.962 222.492 249.302C222.492 248.414 222.696 247.604 223.104 246.872C223.512 246.14 224.076 245.552 224.796 245.108C225.528 244.664 226.362 244.442 227.298 244.442C228.246 244.442 229.068 244.67 229.764 245.126C230.472 245.57 231.018 246.158 231.402 246.89C231.798 247.61 231.996 248.39 231.996 249.23C231.996 249.35 231.99 249.47 231.978 249.59C231.978 249.698 231.972 249.782 231.96 249.842H224.166C224.214 250.454 224.382 251 224.67 251.48C224.97 251.948 225.354 252.32 225.822 252.596C226.29 252.86 226.794 252.992 227.334 252.992C227.91 252.992 228.45 252.848 228.954 252.56C229.47 252.272 229.824 251.894 230.016 251.426L231.384 251.804C231.18 252.26 230.874 252.668 230.466 253.028C230.07 253.388 229.596 253.67 229.044 253.874C228.504 254.078 227.916 254.18 227.28 254.18ZM224.112 248.744H230.52C230.472 248.132 230.298 247.592 229.998 247.124C229.698 246.656 229.314 246.29 228.846 246.026C228.378 245.762 227.862 245.63 227.298 245.63C226.746 245.63 226.236 245.762 225.768 246.026C225.3 246.29 224.916 246.656 224.616 247.124C224.328 247.592 224.16 248.132 224.112 248.744ZM236.979 254.18C236.199 254.18 235.467 254.054 234.783 253.802C234.099 253.538 233.511 253.148 233.019 252.632L233.631 251.516C234.171 252.02 234.711 252.38 235.251 252.596C235.791 252.812 236.343 252.92 236.907 252.92C237.555 252.92 238.083 252.8 238.491 252.56C238.899 252.308 239.103 251.942 239.103 251.462C239.103 251.114 238.995 250.856 238.779 250.688C238.575 250.52 238.281 250.382 237.897 250.274C237.513 250.154 237.057 250.022 236.529 249.878C235.881 249.686 235.335 249.482 234.891 249.266C234.447 249.05 234.111 248.78 233.883 248.456C233.655 248.132 233.541 247.724 233.541 247.232C233.541 246.632 233.697 246.128 234.009 245.72C234.321 245.3 234.747 244.982 235.287 244.766C235.839 244.55 236.463 244.442 237.159 244.442C237.855 244.442 238.485 244.55 239.049 244.766C239.613 244.982 240.099 245.3 240.507 245.72L239.787 246.818C239.415 246.434 239.007 246.152 238.563 245.972C238.119 245.78 237.621 245.684 237.069 245.684C236.745 245.684 236.427 245.726 236.115 245.81C235.803 245.882 235.545 246.02 235.341 246.224C235.137 246.416 235.035 246.692 235.035 247.052C235.035 247.352 235.113 247.592 235.269 247.772C235.437 247.94 235.677 248.084 235.989 248.204C236.313 248.324 236.703 248.456 237.159 248.6C237.867 248.804 238.479 249.008 238.995 249.212C239.523 249.416 239.931 249.68 240.219 250.004C240.507 250.328 240.651 250.778 240.651 251.354C240.651 252.242 240.315 252.938 239.643 253.442C238.971 253.934 238.083 254.18 236.979 254.18ZM245.768 254.18C244.988 254.18 244.256 254.054 243.572 253.802C242.888 253.538 242.3 253.148 241.808 252.632L242.42 251.516C242.96 252.02 243.5 252.38 244.04 252.596C244.58 252.812 245.132 252.92 245.696 252.92C246.344 252.92 246.872 252.8 247.28 252.56C247.688 252.308 247.892 251.942 247.892 251.462C247.892 251.114 247.784 250.856 247.568 250.688C247.364 250.52 247.07 250.382 246.686 250.274C246.302 250.154 245.846 250.022 245.318 249.878C244.67 249.686 244.124 249.482 243.68 249.266C243.236 249.05 242.9 248.78 242.672 248.456C242.444 248.132 242.33 247.724 242.33 247.232C242.33 246.632 242.486 246.128 242.798 245.72C243.11 245.3 243.536 244.982 244.076 244.766C244.628 244.55 245.252 244.442 245.948 244.442C246.644 244.442 247.274 244.55 247.838 244.766C248.402 244.982 248.888 245.3 249.296 245.72L248.576 246.818C248.204 246.434 247.796 246.152 247.352 245.972C246.908 245.78 246.41 245.684 245.858 245.684C245.534 245.684 245.216 245.726 244.904 245.81C244.592 245.882 244.334 246.02 244.13 246.224C243.926 246.416 243.824 246.692 243.824 247.052C243.824 247.352 243.902 247.592 244.058 247.772C244.226 247.94 244.466 248.084 244.778 248.204C245.102 248.324 245.492 248.456 245.948 248.6C246.656 248.804 247.268 249.008 247.784 249.212C248.312 249.416 248.72 249.68 249.008 250.004C249.296 250.328 249.44 250.778 249.44 251.354C249.44 252.242 249.104 252.938 248.432 253.442C247.76 253.934 246.872 254.18 245.768 254.18ZM251.209 246.692V244.676H252.523V246.692H251.209ZM251.209 254V251.984H252.523V254H251.209ZM259.004 254C259.004 253.52 259.04 253.07 259.112 252.65C259.196 252.23 259.34 251.828 259.544 251.444C259.76 251.06 260.06 250.694 260.444 250.346C260.828 249.986 261.326 249.638 261.938 249.302C262.298 249.098 262.658 248.906 263.018 248.726C263.39 248.546 263.732 248.354 264.044 248.15C264.368 247.946 264.626 247.724 264.818 247.484C265.01 247.232 265.106 246.944 265.106 246.62C265.106 246.344 265.022 246.08 264.854 245.828C264.698 245.564 264.458 245.354 264.134 245.198C263.822 245.03 263.432 244.946 262.964 244.946C262.604 244.946 262.274 244.994 261.974 245.09C261.686 245.186 261.422 245.312 261.182 245.468C260.954 245.612 260.75 245.768 260.57 245.936C260.402 246.092 260.258 246.236 260.138 246.368L259.148 245.252C259.244 245.144 259.406 245 259.634 244.82C259.862 244.628 260.15 244.436 260.498 244.244C260.846 244.052 261.248 243.89 261.704 243.758C262.172 243.614 262.682 243.542 263.234 243.542C263.978 243.542 264.614 243.674 265.142 243.938C265.682 244.19 266.096 244.538 266.384 244.982C266.672 245.414 266.816 245.9 266.816 246.44C266.816 246.908 266.714 247.316 266.51 247.664C266.318 248.012 266.066 248.318 265.754 248.582C265.454 248.846 265.136 249.074 264.8 249.266C264.476 249.446 264.182 249.602 263.918 249.734C263.378 249.998 262.916 250.238 262.532 250.454C262.148 250.67 261.83 250.886 261.578 251.102C261.338 251.306 261.14 251.522 260.984 251.75C260.84 251.978 260.732 252.248 260.66 252.56H267.014V254H259.004ZM272.579 256.682C271.667 256.682 270.845 256.466 270.113 256.034C269.381 255.602 268.829 255.026 268.457 254.306L269.447 253.442C269.783 253.994 270.227 254.438 270.779 254.774C271.343 255.11 271.949 255.278 272.597 255.278C273.149 255.278 273.641 255.158 274.073 254.918C274.505 254.678 274.847 254.348 275.099 253.928C275.351 253.496 275.477 253.004 275.477 252.452C275.477 251.912 275.351 251.438 275.099 251.03C274.859 250.622 274.529 250.304 274.109 250.076C273.701 249.848 273.239 249.734 272.723 249.734C272.207 249.734 271.721 249.848 271.265 250.076C270.821 250.304 270.455 250.628 270.167 251.048H268.745L270.185 243.722H276.395V245.18H271.355L270.581 249.248C270.845 248.972 271.175 248.756 271.571 248.6C271.979 248.432 272.429 248.348 272.921 248.348C273.713 248.348 274.421 248.522 275.045 248.87C275.681 249.218 276.179 249.698 276.539 250.31C276.911 250.922 277.097 251.63 277.097 252.434C277.097 253.274 276.893 254.012 276.485 254.648C276.089 255.296 275.549 255.794 274.865 256.142C274.181 256.502 273.419 256.682 272.579 256.682ZM281.163 246.296C280.659 246.296 280.197 246.182 279.777 245.954C279.357 245.714 279.021 245.396 278.769 245C278.517 244.592 278.391 244.148 278.391 243.668C278.391 243.176 278.517 242.732 278.769 242.336C279.021 241.94 279.357 241.628 279.777 241.4C280.197 241.16 280.659 241.04 281.163 241.04C281.679 241.04 282.147 241.16 282.567 241.4C282.987 241.628 283.317 241.94 283.557 242.336C283.809 242.732 283.935 243.17 283.935 243.65C283.935 244.142 283.809 244.592 283.557 245C283.317 245.396 282.987 245.714 282.567 245.954C282.147 246.182 281.679 246.296 281.163 246.296ZM281.163 245.432C281.463 245.432 281.733 245.354 281.973 245.198C282.225 245.03 282.423 244.814 282.567 244.55C282.711 244.274 282.783 243.98 282.783 243.668C282.783 243.344 282.705 243.05 282.549 242.786C282.405 242.51 282.207 242.294 281.955 242.138C281.715 241.982 281.451 241.904 281.163 241.904C280.863 241.904 280.587 241.988 280.335 242.156C280.095 242.312 279.903 242.528 279.759 242.804C279.615 243.068 279.543 243.356 279.543 243.668C279.543 243.992 279.615 244.286 279.759 244.55C279.915 244.814 280.113 245.03 280.353 245.198C280.605 245.354 280.875 245.432 281.163 245.432ZM287.481 254.18C286.965 254.18 286.497 254.066 286.077 253.838C285.669 253.598 285.339 253.28 285.087 252.884C284.835 252.476 284.709 252.032 284.709 251.552C284.709 251.06 284.835 250.616 285.087 250.22C285.339 249.824 285.669 249.512 286.077 249.284C286.497 249.044 286.965 248.924 287.481 248.924C287.997 248.924 288.465 249.044 288.885 249.284C289.305 249.512 289.635 249.824 289.875 250.22C290.127 250.616 290.253 251.054 290.253 251.534C290.253 252.026 290.127 252.476 289.875 252.884C289.635 253.28 289.305 253.598 288.885 253.838C288.465 254.066 287.997 254.18 287.481 254.18ZM287.481 253.316C287.781 253.316 288.051 253.238 288.291 253.082C288.543 252.914 288.741 252.698 288.885 252.434C289.029 252.158 289.101 251.864 289.101 251.552C289.101 251.228 289.023 250.934 288.867 250.67C288.723 250.394 288.525 250.178 288.273 250.022C288.033 249.866 287.769 249.788 287.481 249.788C287.181 249.788 286.905 249.872 286.653 250.04C286.413 250.196 286.221 250.412 286.077 250.688C285.933 250.952 285.861 251.24 285.861 251.552C285.861 251.876 285.933 252.17 286.077 252.434C286.233 252.698 286.431 252.914 286.671 253.082C286.923 253.238 287.193 253.316 287.481 253.316ZM279.003 253.406L284.043 247.34L288.867 241.13L289.641 241.796L284.655 247.826L279.759 254.09L279.003 253.406Z" fill="black"/>
<rect y="214" width="300" height="15" rx="2" fill="#D9D9D9"/>
<rect y="214" width="75" height="15" rx="2" fill="#B02E0C"/>
<rect x="174" y="101" width="100" height="97" fill="#D9D9D9"/>
<path d="M224 86L284.622 101.75H163.378L224 86Z" fill="#D9D9D9"/>
<rect x="86.0002" y="1" width="16" height="198" stroke="black" stroke-width="2"/>
<line x1="54.0001" y1="17" x2="54.0001" y2="32" stroke="black" stroke-width="2"/>
<line x1="193" y1="34" x2="193" y2="55" stroke="black" stroke-width="2"/>
<line x1="202" y1="24" x2="202" y2="34" stroke="black" stroke-width="2"/>
<line x1="87.14" y1="12.9902" x2="53.1399" y2="17.7907" stroke="black" stroke-width="2"/>
<line x1="53.0001" y1="33" x2="203" y2="33" stroke="black" stroke-width="2"/>
<line x1="86.0854" y1="14.0036" x2="203.085" y2="24.0036" stroke="black" stroke-width="2"/>
<rect x="182.5" y="54.5" width="20" height="12" fill="#B02E0C" stroke="black"/>
<line y1="199.5" x2="300" y2="199.5" stroke="black" stroke-width="3"/>
<rect x="174.5" y="173.5" width="99" height="12" fill="#B02E0C" stroke="black"/>
<rect x="174.5" y="185.5" width="99" height="12" fill="#B02E0C" stroke="black"/>
<line x1="184.5" y1="185" x2="184.5" y2="198" stroke="black"/>
<line x1="193.5" y1="173" x2="193.5" y2="186" stroke="black"/>
<line x1="204.5" y1="185" x2="204.5" y2="198" stroke="black"/>
<line x1="213.5" y1="173" x2="213.5" y2="186" stroke="black"/>
<line x1="224.5" y1="185" x2="224.5" y2="198" stroke="black"/>
<line x1="233.5" y1="173" x2="233.5" y2="186" stroke="black"/>
<line x1="244.5" y1="185" x2="244.5" y2="198" stroke="black"/>
<line x1="264.5" y1="185" x2="264.5" y2="198" stroke="black"/>
<line x1="253.5" y1="173" x2="253.5" y2="186" stroke="black"/>
</svg>
