<svg width="376" height="275" viewBox="0 0 376 275" fill="none" xmlns="http://www.w3.org/2000/svg">
<path d="M177.53 254V241.22H182.858C183.422 241.22 183.938 241.34 184.406 241.58C184.874 241.808 185.282 242.12 185.63 242.516C185.978 242.9 186.248 243.338 186.44 243.83C186.632 244.31 186.728 244.802 186.728 245.306C186.728 246.002 186.572 246.668 186.26 247.304C185.948 247.928 185.51 248.438 184.946 248.834C184.382 249.218 183.722 249.41 182.966 249.41H179.15V254H177.53ZM179.15 247.97H182.876C183.32 247.97 183.704 247.85 184.028 247.61C184.364 247.37 184.622 247.046 184.802 246.638C184.994 246.23 185.09 245.786 185.09 245.306C185.09 244.802 184.982 244.352 184.766 243.956C184.55 243.548 184.268 243.23 183.92 243.002C183.572 242.774 183.188 242.66 182.768 242.66H179.15V247.97ZM193.461 245.99C192.669 246.002 191.967 246.206 191.355 246.602C190.755 246.986 190.329 247.52 190.077 248.204V254H188.493V244.604H189.969V246.782C190.293 246.134 190.719 245.612 191.247 245.216C191.787 244.808 192.351 244.58 192.939 244.532C193.059 244.532 193.161 244.532 193.245 244.532C193.329 244.532 193.401 244.538 193.461 244.55V245.99ZM198.907 254.18C198.199 254.18 197.557 254.054 196.981 253.802C196.405 253.538 195.907 253.184 195.487 252.74C195.067 252.284 194.743 251.762 194.515 251.174C194.287 250.586 194.173 249.968 194.173 249.32C194.173 248.66 194.287 248.036 194.515 247.448C194.743 246.86 195.067 246.344 195.487 245.9C195.907 245.444 196.405 245.09 196.981 244.838C197.569 244.574 198.211 244.442 198.907 244.442C199.615 244.442 200.257 244.574 200.833 244.838C201.409 245.09 201.907 245.444 202.327 245.9C202.759 246.344 203.089 246.86 203.317 247.448C203.545 248.036 203.659 248.66 203.659 249.32C203.659 249.968 203.545 250.586 203.317 251.174C203.089 251.762 202.765 252.284 202.345 252.74C201.925 253.184 201.421 253.538 200.833 253.802C200.257 254.054 199.615 254.18 198.907 254.18ZM195.793 249.338C195.793 249.986 195.931 250.574 196.207 251.102C196.495 251.63 196.873 252.05 197.341 252.362C197.809 252.662 198.331 252.812 198.907 252.812C199.483 252.812 200.005 252.656 200.473 252.344C200.953 252.032 201.331 251.612 201.607 251.084C201.895 250.544 202.039 249.95 202.039 249.302C202.039 248.654 201.895 248.066 201.607 247.538C201.331 247.01 200.953 246.59 200.473 246.278C200.005 245.966 199.483 245.81 198.907 245.81C198.331 245.81 197.809 245.972 197.341 246.296C196.873 246.608 196.495 247.028 196.207 247.556C195.931 248.084 195.793 248.678 195.793 249.338ZM209.323 254.108C208.687 254.108 208.099 253.982 207.559 253.73C207.031 253.466 206.575 253.112 206.191 252.668C205.807 252.212 205.507 251.696 205.291 251.12C205.087 250.544 204.985 249.944 204.985 249.32C204.985 248.66 205.087 248.036 205.291 247.448C205.507 246.86 205.807 246.344 206.191 245.9C206.587 245.444 207.049 245.09 207.577 244.838C208.105 244.574 208.693 244.442 209.341 244.442C210.121 244.442 210.799 244.634 211.375 245.018C211.963 245.402 212.455 245.888 212.851 246.476V244.604H214.255V253.892C214.255 254.78 214.039 255.53 213.607 256.142C213.187 256.754 212.611 257.216 211.879 257.528C211.159 257.852 210.355 258.014 209.467 258.014C208.411 258.014 207.547 257.828 206.875 257.456C206.203 257.084 205.645 256.58 205.201 255.944L206.119 255.134C206.491 255.686 206.971 256.1 207.559 256.376C208.159 256.652 208.795 256.79 209.467 256.79C210.043 256.79 210.571 256.682 211.051 256.466C211.543 256.262 211.933 255.944 212.221 255.512C212.521 255.08 212.671 254.54 212.671 253.892V252.236C212.323 252.812 211.843 253.268 211.231 253.604C210.631 253.94 209.995 254.108 209.323 254.108ZM209.809 252.812C210.145 252.812 210.469 252.752 210.781 252.632C211.093 252.512 211.381 252.356 211.645 252.164C211.909 251.96 212.131 251.732 212.311 251.48C212.491 251.228 212.611 250.97 212.671 250.706V248.006C212.503 247.574 212.263 247.196 211.951 246.872C211.639 246.536 211.285 246.278 210.889 246.098C210.493 245.906 210.085 245.81 209.665 245.81C209.185 245.81 208.753 245.912 208.369 246.116C207.997 246.32 207.679 246.596 207.415 246.944C207.151 247.28 206.947 247.658 206.803 248.078C206.659 248.498 206.587 248.924 206.587 249.356C206.587 249.824 206.671 250.268 206.839 250.688C207.007 251.096 207.235 251.462 207.523 251.786C207.811 252.11 208.153 252.362 208.549 252.542C208.945 252.722 209.365 252.812 209.809 252.812ZM221.779 245.99C220.987 246.002 220.285 246.206 219.673 246.602C219.073 246.986 218.647 247.52 218.395 248.204V254H216.811V244.604H218.287V246.782C218.611 246.134 219.037 245.612 219.565 245.216C220.105 244.808 220.669 244.58 221.257 244.532C221.377 244.532 221.479 244.532 221.563 244.532C221.647 244.532 221.719 244.538 221.779 244.55V245.99ZM227.28 254.18C226.572 254.18 225.924 254.054 225.336 253.802C224.76 253.538 224.256 253.184 223.824 252.74C223.404 252.284 223.074 251.762 222.834 251.174C222.606 250.586 222.492 249.962 222.492 249.302C222.492 248.414 222.696 247.604 223.104 246.872C223.512 246.14 224.076 245.552 224.796 245.108C225.528 244.664 226.362 244.442 227.298 244.442C228.246 244.442 229.068 244.67 229.764 245.126C230.472 245.57 231.018 246.158 231.402 246.89C231.798 247.61 231.996 248.39 231.996 249.23C231.996 249.35 231.99 249.47 231.978 249.59C231.978 249.698 231.972 249.782 231.96 249.842H224.166C224.214 250.454 224.382 251 224.67 251.48C224.97 251.948 225.354 252.32 225.822 252.596C226.29 252.86 226.794 252.992 227.334 252.992C227.91 252.992 228.45 252.848 228.954 252.56C229.47 252.272 229.824 251.894 230.016 251.426L231.384 251.804C231.18 252.26 230.874 252.668 230.466 253.028C230.07 253.388 229.596 253.67 229.044 253.874C228.504 254.078 227.916 254.18 227.28 254.18ZM224.112 248.744H230.52C230.472 248.132 230.298 247.592 229.998 247.124C229.698 246.656 229.314 246.29 228.846 246.026C228.378 245.762 227.862 245.63 227.298 245.63C226.746 245.63 226.236 245.762 225.768 246.026C225.3 246.29 224.916 246.656 224.616 247.124C224.328 247.592 224.16 248.132 224.112 248.744ZM236.979 254.18C236.199 254.18 235.467 254.054 234.783 253.802C234.099 253.538 233.511 253.148 233.019 252.632L233.631 251.516C234.171 252.02 234.711 252.38 235.251 252.596C235.791 252.812 236.343 252.92 236.907 252.92C237.555 252.92 238.083 252.8 238.491 252.56C238.899 252.308 239.103 251.942 239.103 251.462C239.103 251.114 238.995 250.856 238.779 250.688C238.575 250.52 238.281 250.382 237.897 250.274C237.513 250.154 237.057 250.022 236.529 249.878C235.881 249.686 235.335 249.482 234.891 249.266C234.447 249.05 234.111 248.78 233.883 248.456C233.655 248.132 233.541 247.724 233.541 247.232C233.541 246.632 233.697 246.128 234.009 245.72C234.321 245.3 234.747 244.982 235.287 244.766C235.839 244.55 236.463 244.442 237.159 244.442C237.855 244.442 238.485 244.55 239.049 244.766C239.613 244.982 240.099 245.3 240.507 245.72L239.787 246.818C239.415 246.434 239.007 246.152 238.563 245.972C238.119 245.78 237.621 245.684 237.069 245.684C236.745 245.684 236.427 245.726 236.115 245.81C235.803 245.882 235.545 246.02 235.341 246.224C235.137 246.416 235.035 246.692 235.035 247.052C235.035 247.352 235.113 247.592 235.269 247.772C235.437 247.94 235.677 248.084 235.989 248.204C236.313 248.324 236.703 248.456 237.159 248.6C237.867 248.804 238.479 249.008 238.995 249.212C239.523 249.416 239.931 249.68 240.219 250.004C240.507 250.328 240.651 250.778 240.651 251.354C240.651 252.242 240.315 252.938 239.643 253.442C238.971 253.934 238.083 254.18 236.979 254.18ZM245.768 254.18C244.988 254.18 244.256 254.054 243.572 253.802C242.888 253.538 242.3 253.148 241.808 252.632L242.42 251.516C242.96 252.02 243.5 252.38 244.04 252.596C244.58 252.812 245.132 252.92 245.696 252.92C246.344 252.92 246.872 252.8 247.28 252.56C247.688 252.308 247.892 251.942 247.892 251.462C247.892 251.114 247.784 250.856 247.568 250.688C247.364 250.52 247.07 250.382 246.686 250.274C246.302 250.154 245.846 250.022 245.318 249.878C244.67 249.686 244.124 249.482 243.68 249.266C243.236 249.05 242.9 248.78 242.672 248.456C242.444 248.132 242.33 247.724 242.33 247.232C242.33 246.632 242.486 246.128 242.798 245.72C243.11 245.3 243.536 244.982 244.076 244.766C244.628 244.55 245.252 244.442 245.948 244.442C246.644 244.442 247.274 244.55 247.838 244.766C248.402 244.982 248.888 245.3 249.296 245.72L248.576 246.818C248.204 246.434 247.796 246.152 247.352 245.972C246.908 245.78 246.41 245.684 245.858 245.684C245.534 245.684 245.216 245.726 244.904 245.81C244.592 245.882 244.334 246.02 244.13 246.224C243.926 246.416 243.824 246.692 243.824 247.052C243.824 247.352 243.902 247.592 244.058 247.772C244.226 247.94 244.466 248.084 244.778 248.204C245.102 248.324 245.492 248.456 245.948 248.6C246.656 248.804 247.268 249.008 247.784 249.212C248.312 249.416 248.72 249.68 249.008 250.004C249.296 250.328 249.44 250.778 249.44 251.354C249.44 252.242 249.104 252.938 248.432 253.442C247.76 253.934 246.872 254.18 245.768 254.18ZM251.209 246.692V244.676H252.523V246.692H251.209ZM251.209 254V251.984H252.523V254H251.209ZM265.898 252.56V254H259.436V252.56H261.992V245.54C261.884 245.684 261.716 245.84 261.488 246.008C261.26 246.164 261.002 246.314 260.714 246.458C260.426 246.602 260.138 246.722 259.85 246.818C259.562 246.902 259.298 246.944 259.058 246.944V245.432C259.322 245.432 259.61 245.36 259.922 245.216C260.246 245.06 260.558 244.88 260.858 244.676C261.158 244.472 261.41 244.28 261.614 244.1C261.83 243.92 261.956 243.794 261.992 243.722H263.612V252.56H265.898ZM276.414 248.726C276.414 249.782 276.216 250.724 275.82 251.552C275.424 252.368 274.884 253.01 274.2 253.478C273.516 253.946 272.736 254.18 271.86 254.18C270.984 254.18 270.204 253.946 269.52 253.478C268.836 253.01 268.296 252.368 267.9 251.552C267.504 250.724 267.306 249.782 267.306 248.726C267.306 247.67 267.504 246.734 267.9 245.918C268.296 245.09 268.836 244.442 269.52 243.974C270.204 243.494 270.984 243.254 271.86 243.254C272.736 243.254 273.516 243.494 274.2 243.974C274.884 244.442 275.424 245.09 275.82 245.918C276.216 246.734 276.414 247.67 276.414 248.726ZM274.812 248.726C274.812 247.934 274.686 247.238 274.434 246.638C274.182 246.038 273.834 245.57 273.39 245.234C272.946 244.898 272.436 244.73 271.86 244.73C271.272 244.73 270.756 244.898 270.312 245.234C269.868 245.57 269.52 246.038 269.268 246.638C269.016 247.238 268.89 247.934 268.89 248.726C268.89 249.518 269.016 250.214 269.268 250.814C269.52 251.402 269.868 251.864 270.312 252.2C270.756 252.536 271.272 252.704 271.86 252.704C272.436 252.704 272.946 252.536 273.39 252.2C273.834 251.864 274.182 251.402 274.434 250.814C274.686 250.214 274.812 249.518 274.812 248.726ZM287.471 248.726C287.471 249.782 287.273 250.724 286.877 251.552C286.481 252.368 285.941 253.01 285.257 253.478C284.573 253.946 283.793 254.18 282.917 254.18C282.041 254.18 281.261 253.946 280.577 253.478C279.893 253.01 279.353 252.368 278.957 251.552C278.561 250.724 278.363 249.782 278.363 248.726C278.363 247.67 278.561 246.734 278.957 245.918C279.353 245.09 279.893 244.442 280.577 243.974C281.261 243.494 282.041 243.254 282.917 243.254C283.793 243.254 284.573 243.494 285.257 243.974C285.941 244.442 286.481 245.09 286.877 245.918C287.273 246.734 287.471 247.67 287.471 248.726ZM285.869 248.726C285.869 247.934 285.743 247.238 285.491 246.638C285.239 246.038 284.891 245.57 284.447 245.234C284.003 244.898 283.493 244.73 282.917 244.73C282.329 244.73 281.813 244.898 281.369 245.234C280.925 245.57 280.577 246.038 280.325 246.638C280.073 247.238 279.947 247.934 279.947 248.726C279.947 249.518 280.073 250.214 280.325 250.814C280.577 251.402 280.925 251.864 281.369 252.2C281.813 252.536 282.329 252.704 282.917 252.704C283.493 252.704 284.003 252.536 284.447 252.2C284.891 251.864 285.239 251.402 285.491 250.814C285.743 250.214 285.869 249.518 285.869 248.726ZM291.885 246.296C291.381 246.296 290.919 246.182 290.499 245.954C290.079 245.714 289.743 245.396 289.491 245C289.239 244.592 289.113 244.148 289.113 243.668C289.113 243.176 289.239 242.732 289.491 242.336C289.743 241.94 290.079 241.628 290.499 241.4C290.919 241.16 291.381 241.04 291.885 241.04C292.401 241.04 292.869 241.16 293.289 241.4C293.709 241.628 294.039 241.94 294.279 242.336C294.531 242.732 294.657 243.17 294.657 243.65C294.657 244.142 294.531 244.592 294.279 245C294.039 245.396 293.709 245.714 293.289 245.954C292.869 246.182 292.401 246.296 291.885 246.296ZM291.885 245.432C292.185 245.432 292.455 245.354 292.695 245.198C292.947 245.03 293.145 244.814 293.289 244.55C293.433 244.274 293.505 243.98 293.505 243.668C293.505 243.344 293.427 243.05 293.271 242.786C293.127 242.51 292.929 242.294 292.677 242.138C292.437 241.982 292.173 241.904 291.885 241.904C291.585 241.904 291.309 241.988 291.057 242.156C290.817 242.312 290.625 242.528 290.481 242.804C290.337 243.068 290.265 243.356 290.265 243.668C290.265 243.992 290.337 244.286 290.481 244.55C290.637 244.814 290.835 245.03 291.075 245.198C291.327 245.354 291.597 245.432 291.885 245.432ZM298.203 254.18C297.687 254.18 297.219 254.066 296.799 253.838C296.391 253.598 296.061 253.28 295.809 252.884C295.557 252.476 295.431 252.032 295.431 251.552C295.431 251.06 295.557 250.616 295.809 250.22C296.061 249.824 296.391 249.512 296.799 249.284C297.219 249.044 297.687 248.924 298.203 248.924C298.719 248.924 299.187 249.044 299.607 249.284C300.027 249.512 300.357 249.824 300.597 250.22C300.849 250.616 300.975 251.054 300.975 251.534C300.975 252.026 300.849 252.476 300.597 252.884C300.357 253.28 300.027 253.598 299.607 253.838C299.187 254.066 298.719 254.18 298.203 254.18ZM298.203 253.316C298.503 253.316 298.773 253.238 299.013 253.082C299.265 252.914 299.463 252.698 299.607 252.434C299.751 252.158 299.823 251.864 299.823 251.552C299.823 251.228 299.745 250.934 299.589 250.67C299.445 250.394 299.247 250.178 298.995 250.022C298.755 249.866 298.491 249.788 298.203 249.788C297.903 249.788 297.627 249.872 297.375 250.04C297.135 250.196 296.943 250.412 296.799 250.688C296.655 250.952 296.583 251.24 296.583 251.552C296.583 251.876 296.655 252.17 296.799 252.434C296.955 252.698 297.153 252.914 297.393 253.082C297.645 253.238 297.915 253.316 298.203 253.316ZM289.725 253.406L294.765 247.34L299.589 241.13L300.363 241.796L295.377 247.826L290.481 254.09L289.725 253.406Z" fill="black"/>
<rect y="214" width="300" height="15" rx="2" fill="#B02E0C"/>
<rect x="174" y="101" width="100" height="97" fill="#D9D9D9"/>
<path d="M224 86L284.622 101.75H163.378L224 86Z" fill="#D9D9D9"/>
<rect x="86.0002" y="1" width="16" height="198" stroke="black" stroke-width="2"/>
<line x1="54.0001" y1="17" x2="54.0001" y2="32" stroke="black" stroke-width="2"/>
<line x1="193" y1="34" x2="193" y2="55" stroke="black" stroke-width="2"/>
<line x1="202" y1="24" x2="202" y2="34" stroke="black" stroke-width="2"/>
<line x1="87.14" y1="12.9902" x2="53.1399" y2="17.7907" stroke="black" stroke-width="2"/>
<line x1="53.0001" y1="33" x2="203" y2="33" stroke="black" stroke-width="2"/>
<line x1="86.0854" y1="14.0036" x2="203.085" y2="24.0036" stroke="black" stroke-width="2"/>
<rect x="182.5" y="54.5" width="20" height="12" fill="#B02E0C" stroke="black"/>
<line y1="199.5" x2="300" y2="199.5" stroke="black" stroke-width="3"/>
<path d="M167.291 101.25L224 86.5166L280.709 101.25H167.291Z" fill="#B02E0C" stroke="black"/>
<rect x="174.5" y="173.5" width="99" height="12" fill="#B02E0C" stroke="black"/>
<rect x="174.5" y="185.5" width="99" height="12" fill="#B02E0C" stroke="black"/>
<line x1="184.5" y1="185" x2="184.5" y2="198" stroke="black"/>
<line x1="193.5" y1="173" x2="193.5" y2="186" stroke="black"/>
<line x1="204.5" y1="185" x2="204.5" y2="198" stroke="black"/>
<line x1="213.5" y1="173" x2="213.5" y2="186" stroke="black"/>
<line x1="224.5" y1="185" x2="224.5" y2="198" stroke="black"/>
<line x1="233.5" y1="173" x2="233.5" y2="186" stroke="black"/>
<line x1="244.5" y1="185" x2="244.5" y2="198" stroke="black"/>
<line x1="264.5" y1="185" x2="264.5" y2="198" stroke="black"/>
<line x1="253.5" y1="173" x2="253.5" y2="186" stroke="black"/>
<rect x="174.5" y="149.5" width="99" height="12" fill="#B02E0C" stroke="black"/>
<rect x="174.5" y="161.5" width="99" height="12" fill="#B02E0C" stroke="black"/>
<line x1="184.5" y1="161" x2="184.5" y2="174" stroke="black"/>
<line x1="193.5" y1="149" x2="193.5" y2="162" stroke="black"/>
<line x1="204.5" y1="161" x2="204.5" y2="174" stroke="black"/>
<line x1="213.5" y1="149" x2="213.5" y2="162" stroke="black"/>
<line x1="224.5" y1="161" x2="224.5" y2="174" stroke="black"/>
<line x1="233.5" y1="149" x2="233.5" y2="162" stroke="black"/>
<line x1="244.5" y1="161" x2="244.5" y2="174" stroke="black"/>
<line x1="264.5" y1="161" x2="264.5" y2="174" stroke="black"/>
<line x1="253.5" y1="149" x2="253.5" y2="162" stroke="black"/>
<rect x="174.5" y="125.5" width="99" height="12" fill="#B02E0C" stroke="black"/>
<rect x="174.5" y="137.5" width="99" height="12" fill="#B02E0C" stroke="black"/>
<line x1="184.5" y1="137" x2="184.5" y2="150" stroke="black"/>
<line x1="193.5" y1="125" x2="193.5" y2="138" stroke="black"/>
<line x1="204.5" y1="137" x2="204.5" y2="150" stroke="black"/>
<line x1="213.5" y1="125" x2="213.5" y2="138" stroke="black"/>
<line x1="224.5" y1="137" x2="224.5" y2="150" stroke="black"/>
<line x1="233.5" y1="125" x2="233.5" y2="138" stroke="black"/>
<line x1="244.5" y1="137" x2="244.5" y2="150" stroke="black"/>
<line x1="264.5" y1="137" x2="264.5" y2="150" stroke="black"/>
<line x1="253.5" y1="125" x2="253.5" y2="138" stroke="black"/>
<rect x="174.5" y="101.5" width="99" height="12" fill="#B02E0C" stroke="black"/>
<rect x="174.5" y="113.5" width="99" height="12" fill="#B02E0C" stroke="black"/>
<line x1="184.5" y1="113" x2="184.5" y2="126" stroke="black"/>
<line x1="193.5" y1="101" x2="193.5" y2="114" stroke="black"/>
<line x1="204.5" y1="113" x2="204.5" y2="126" stroke="black"/>
<line x1="213.5" y1="101" x2="213.5" y2="114" stroke="black"/>
<line x1="224.5" y1="113" x2="224.5" y2="126" stroke="black"/>
<line x1="233.5" y1="101" x2="233.5" y2="114" stroke="black"/>
<line x1="244.5" y1="113" x2="244.5" y2="126" stroke="black"/>
<line x1="264.5" y1="113" x2="264.5" y2="126" stroke="black"/>
<line x1="253.5" y1="101" x2="253.5" y2="114" stroke="black"/>
</svg>
