<svg width="376" height="275" viewBox="0 0 376 275" fill="none" xmlns="http://www.w3.org/2000/svg">
<path d="M177.53 254V241.22H182.858C183.422 241.22 183.938 241.34 184.406 241.58C184.874 241.808 185.282 242.12 185.63 242.516C185.978 242.9 186.248 243.338 186.44 243.83C186.632 244.31 186.728 244.802 186.728 245.306C186.728 246.002 186.572 246.668 186.26 247.304C185.948 247.928 185.51 248.438 184.946 248.834C184.382 249.218 183.722 249.41 182.966 249.41H179.15V254H177.53ZM179.15 247.97H182.876C183.32 247.97 183.704 247.85 184.028 247.61C184.364 247.37 184.622 247.046 184.802 246.638C184.994 246.23 185.09 245.786 185.09 245.306C185.09 244.802 184.982 244.352 184.766 243.956C184.55 243.548 184.268 243.23 183.92 243.002C183.572 242.774 183.188 242.66 182.768 242.66H179.15V247.97ZM193.461 245.99C192.669 246.002 191.967 246.206 191.355 246.602C190.755 246.986 190.329 247.52 190.077 248.204V254H188.493V244.604H189.969V246.782C190.293 246.134 190.719 245.612 191.247 245.216C191.787 244.808 192.351 244.58 192.939 244.532C193.059 244.532 193.161 244.532 193.245 244.532C193.329 244.532 193.401 244.538 193.461 244.55V245.99ZM198.907 254.18C198.199 254.18 197.557 254.054 196.981 253.802C196.405 253.538 195.907 253.184 195.487 252.74C195.067 252.284 194.743 251.762 194.515 251.174C194.287 250.586 194.173 249.968 194.173 249.32C194.173 248.66 194.287 248.036 194.515 247.448C194.743 246.86 195.067 246.344 195.487 245.9C195.907 245.444 196.405 245.09 196.981 244.838C197.569 244.574 198.211 244.442 198.907 244.442C199.615 244.442 200.257 244.574 200.833 244.838C201.409 245.09 201.907 245.444 202.327 245.9C202.759 246.344 203.089 246.86 203.317 247.448C203.545 248.036 203.659 248.66 203.659 249.32C203.659 249.968 203.545 250.586 203.317 251.174C203.089 251.762 202.765 252.284 202.345 252.74C201.925 253.184 201.421 253.538 200.833 253.802C200.257 254.054 199.615 254.18 198.907 254.18ZM195.793 249.338C195.793 249.986 195.931 250.574 196.207 251.102C196.495 251.63 196.873 252.05 197.341 252.362C197.809 252.662 198.331 252.812 198.907 252.812C199.483 252.812 200.005 252.656 200.473 252.344C200.953 252.032 201.331 251.612 201.607 251.084C201.895 250.544 202.039 249.95 202.039 249.302C202.039 248.654 201.895 248.066 201.607 247.538C201.331 247.01 200.953 246.59 200.473 246.278C200.005 245.966 199.483 245.81 198.907 245.81C198.331 245.81 197.809 245.972 197.341 246.296C196.873 246.608 196.495 247.028 196.207 247.556C195.931 248.084 195.793 248.678 195.793 249.338ZM209.323 254.108C208.687 254.108 208.099 253.982 207.559 253.73C207.031 253.466 206.575 253.112 206.191 252.668C205.807 252.212 205.507 251.696 205.291 251.12C205.087 250.544 204.985 249.944 204.985 249.32C204.985 248.66 205.087 248.036 205.291 247.448C205.507 246.86 205.807 246.344 206.191 245.9C206.587 245.444 207.049 245.09 207.577 244.838C208.105 244.574 208.693 244.442 209.341 244.442C210.121 244.442 210.799 244.634 211.375 245.018C211.963 245.402 212.455 245.888 212.851 246.476V244.604H214.255V253.892C214.255 254.78 214.039 255.53 213.607 256.142C213.187 256.754 212.611 257.216 211.879 257.528C211.159 257.852 210.355 258.014 209.467 258.014C208.411 258.014 207.547 257.828 206.875 257.456C206.203 257.084 205.645 256.58 205.201 255.944L206.119 255.134C206.491 255.686 206.971 256.1 207.559 256.376C208.159 256.652 208.795 256.79 209.467 256.79C210.043 256.79 210.571 256.682 211.051 256.466C211.543 256.262 211.933 255.944 212.221 255.512C212.521 255.08 212.671 254.54 212.671 253.892V252.236C212.323 252.812 211.843 253.268 211.231 253.604C210.631 253.94 209.995 254.108 209.323 254.108ZM209.809 252.812C210.145 252.812 210.469 252.752 210.781 252.632C211.093 252.512 211.381 252.356 211.645 252.164C211.909 251.96 212.131 251.732 212.311 251.48C212.491 251.228 212.611 250.97 212.671 250.706V248.006C212.503 247.574 212.263 247.196 211.951 246.872C211.639 246.536 211.285 246.278 210.889 246.098C210.493 245.906 210.085 245.81 209.665 245.81C209.185 245.81 208.753 245.912 208.369 246.116C207.997 246.32 207.679 246.596 207.415 246.944C207.151 247.28 206.947 247.658 206.803 248.078C206.659 248.498 206.587 248.924 206.587 249.356C206.587 249.824 206.671 250.268 206.839 250.688C207.007 251.096 207.235 251.462 207.523 251.786C207.811 252.11 208.153 252.362 208.549 252.542C208.945 252.722 209.365 252.812 209.809 252.812ZM221.779 245.99C220.987 246.002 220.285 246.206 219.673 246.602C219.073 246.986 218.647 247.52 218.395 248.204V254H216.811V244.604H218.287V246.782C218.611 246.134 219.037 245.612 219.565 245.216C220.105 244.808 220.669 244.58 221.257 244.532C221.377 244.532 221.479 244.532 221.563 244.532C221.647 244.532 221.719 244.538 221.779 244.55V245.99ZM227.28 254.18C226.572 254.18 225.924 254.054 225.336 253.802C224.76 253.538 224.256 253.184 223.824 252.74C223.404 252.284 223.074 251.762 222.834 251.174C222.606 250.586 222.492 249.962 222.492 249.302C222.492 248.414 222.696 247.604 223.104 246.872C223.512 246.14 224.076 245.552 224.796 245.108C225.528 244.664 226.362 244.442 227.298 244.442C228.246 244.442 229.068 244.67 229.764 245.126C230.472 245.57 231.018 246.158 231.402 246.89C231.798 247.61 231.996 248.39 231.996 249.23C231.996 249.35 231.99 249.47 231.978 249.59C231.978 249.698 231.972 249.782 231.96 249.842H224.166C224.214 250.454 224.382 251 224.67 251.48C224.97 251.948 225.354 252.32 225.822 252.596C226.29 252.86 226.794 252.992 227.334 252.992C227.91 252.992 228.45 252.848 228.954 252.56C229.47 252.272 229.824 251.894 230.016 251.426L231.384 251.804C231.18 252.26 230.874 252.668 230.466 253.028C230.07 253.388 229.596 253.67 229.044 253.874C228.504 254.078 227.916 254.18 227.28 254.18ZM224.112 248.744H230.52C230.472 248.132 230.298 247.592 229.998 247.124C229.698 246.656 229.314 246.29 228.846 246.026C228.378 245.762 227.862 245.63 227.298 245.63C226.746 245.63 226.236 245.762 225.768 246.026C225.3 246.29 224.916 246.656 224.616 247.124C224.328 247.592 224.16 248.132 224.112 248.744ZM236.979 254.18C236.199 254.18 235.467 254.054 234.783 253.802C234.099 253.538 233.511 253.148 233.019 252.632L233.631 251.516C234.171 252.02 234.711 252.38 235.251 252.596C235.791 252.812 236.343 252.92 236.907 252.92C237.555 252.92 238.083 252.8 238.491 252.56C238.899 252.308 239.103 251.942 239.103 251.462C239.103 251.114 238.995 250.856 238.779 250.688C238.575 250.52 238.281 250.382 237.897 250.274C237.513 250.154 237.057 250.022 236.529 249.878C235.881 249.686 235.335 249.482 234.891 249.266C234.447 249.05 234.111 248.78 233.883 248.456C233.655 248.132 233.541 247.724 233.541 247.232C233.541 246.632 233.697 246.128 234.009 245.72C234.321 245.3 234.747 244.982 235.287 244.766C235.839 244.55 236.463 244.442 237.159 244.442C237.855 244.442 238.485 244.55 239.049 244.766C239.613 244.982 240.099 245.3 240.507 245.72L239.787 246.818C239.415 246.434 239.007 246.152 238.563 245.972C238.119 245.78 237.621 245.684 237.069 245.684C236.745 245.684 236.427 245.726 236.115 245.81C235.803 245.882 235.545 246.02 235.341 246.224C235.137 246.416 235.035 246.692 235.035 247.052C235.035 247.352 235.113 247.592 235.269 247.772C235.437 247.94 235.677 248.084 235.989 248.204C236.313 248.324 236.703 248.456 237.159 248.6C237.867 248.804 238.479 249.008 238.995 249.212C239.523 249.416 239.931 249.68 240.219 250.004C240.507 250.328 240.651 250.778 240.651 251.354C240.651 252.242 240.315 252.938 239.643 253.442C238.971 253.934 238.083 254.18 236.979 254.18ZM245.768 254.18C244.988 254.18 244.256 254.054 243.572 253.802C242.888 253.538 242.3 253.148 241.808 252.632L242.42 251.516C242.96 252.02 243.5 252.38 244.04 252.596C244.58 252.812 245.132 252.92 245.696 252.92C246.344 252.92 246.872 252.8 247.28 252.56C247.688 252.308 247.892 251.942 247.892 251.462C247.892 251.114 247.784 250.856 247.568 250.688C247.364 250.52 247.07 250.382 246.686 250.274C246.302 250.154 245.846 250.022 245.318 249.878C244.67 249.686 244.124 249.482 243.68 249.266C243.236 249.05 242.9 248.78 242.672 248.456C242.444 248.132 242.33 247.724 242.33 247.232C242.33 246.632 242.486 246.128 242.798 245.72C243.11 245.3 243.536 244.982 244.076 244.766C244.628 244.55 245.252 244.442 245.948 244.442C246.644 244.442 247.274 244.55 247.838 244.766C248.402 244.982 248.888 245.3 249.296 245.72L248.576 246.818C248.204 246.434 247.796 246.152 247.352 245.972C246.908 245.78 246.41 245.684 245.858 245.684C245.534 245.684 245.216 245.726 244.904 245.81C244.592 245.882 244.334 246.02 244.13 246.224C243.926 246.416 243.824 246.692 243.824 247.052C243.824 247.352 243.902 247.592 244.058 247.772C244.226 247.94 244.466 248.084 244.778 248.204C245.102 248.324 245.492 248.456 245.948 248.6C246.656 248.804 247.268 249.008 247.784 249.212C248.312 249.416 248.72 249.68 249.008 250.004C249.296 250.328 249.44 250.778 249.44 251.354C249.44 252.242 249.104 252.938 248.432 253.442C247.76 253.934 246.872 254.18 245.768 254.18ZM251.209 246.692V244.676H252.523V246.692H251.209ZM251.209 254V251.984H252.523V254H251.209ZM268.31 248.726C268.31 249.782 268.112 250.724 267.716 251.552C267.32 252.368 266.78 253.01 266.096 253.478C265.412 253.946 264.632 254.18 263.756 254.18C262.88 254.18 262.1 253.946 261.416 253.478C260.732 253.01 260.192 252.368 259.796 251.552C259.4 250.724 259.202 249.782 259.202 248.726C259.202 247.67 259.4 246.734 259.796 245.918C260.192 245.09 260.732 244.442 261.416 243.974C262.1 243.494 262.88 243.254 263.756 243.254C264.632 243.254 265.412 243.494 266.096 243.974C266.78 244.442 267.32 245.09 267.716 245.918C268.112 246.734 268.31 247.67 268.31 248.726ZM266.708 248.726C266.708 247.934 266.582 247.238 266.33 246.638C266.078 246.038 265.73 245.57 265.286 245.234C264.842 244.898 264.332 244.73 263.756 244.73C263.168 244.73 262.652 244.898 262.208 245.234C261.764 245.57 261.416 246.038 261.164 246.638C260.912 247.238 260.786 247.934 260.786 248.726C260.786 249.518 260.912 250.214 261.164 250.814C261.416 251.402 261.764 251.864 262.208 252.2C262.652 252.536 263.168 252.704 263.756 252.704C264.332 252.704 264.842 252.536 265.286 252.2C265.73 251.864 266.078 251.402 266.33 250.814C266.582 250.214 266.708 249.518 266.708 248.726ZM272.725 246.296C272.221 246.296 271.759 246.182 271.339 245.954C270.919 245.714 270.583 245.396 270.331 245C270.079 244.592 269.953 244.148 269.953 243.668C269.953 243.176 270.079 242.732 270.331 242.336C270.583 241.94 270.919 241.628 271.339 241.4C271.759 241.16 272.221 241.04 272.725 241.04C273.241 241.04 273.709 241.16 274.129 241.4C274.549 241.628 274.879 241.94 275.119 242.336C275.371 242.732 275.497 243.17 275.497 243.65C275.497 244.142 275.371 244.592 275.119 245C274.879 245.396 274.549 245.714 274.129 245.954C273.709 246.182 273.241 246.296 272.725 246.296ZM272.725 245.432C273.025 245.432 273.295 245.354 273.535 245.198C273.787 245.03 273.985 244.814 274.129 244.55C274.273 244.274 274.345 243.98 274.345 243.668C274.345 243.344 274.267 243.05 274.111 242.786C273.967 242.51 273.769 242.294 273.517 242.138C273.277 241.982 273.013 241.904 272.725 241.904C272.425 241.904 272.149 241.988 271.897 242.156C271.657 242.312 271.465 242.528 271.321 242.804C271.177 243.068 271.105 243.356 271.105 243.668C271.105 243.992 271.177 244.286 271.321 244.55C271.477 244.814 271.675 245.03 271.915 245.198C272.167 245.354 272.437 245.432 272.725 245.432ZM279.043 254.18C278.527 254.18 278.059 254.066 277.639 253.838C277.231 253.598 276.901 253.28 276.649 252.884C276.397 252.476 276.271 252.032 276.271 251.552C276.271 251.06 276.397 250.616 276.649 250.22C276.901 249.824 277.231 249.512 277.639 249.284C278.059 249.044 278.527 248.924 279.043 248.924C279.559 248.924 280.027 249.044 280.447 249.284C280.867 249.512 281.197 249.824 281.437 250.22C281.689 250.616 281.815 251.054 281.815 251.534C281.815 252.026 281.689 252.476 281.437 252.884C281.197 253.28 280.867 253.598 280.447 253.838C280.027 254.066 279.559 254.18 279.043 254.18ZM279.043 253.316C279.343 253.316 279.613 253.238 279.853 253.082C280.105 252.914 280.303 252.698 280.447 252.434C280.591 252.158 280.663 251.864 280.663 251.552C280.663 251.228 280.585 250.934 280.429 250.67C280.285 250.394 280.087 250.178 279.835 250.022C279.595 249.866 279.331 249.788 279.043 249.788C278.743 249.788 278.467 249.872 278.215 250.04C277.975 250.196 277.783 250.412 277.639 250.688C277.495 250.952 277.423 251.24 277.423 251.552C277.423 251.876 277.495 252.17 277.639 252.434C277.795 252.698 277.993 252.914 278.233 253.082C278.485 253.238 278.755 253.316 279.043 253.316ZM270.565 253.406L275.605 247.34L280.429 241.13L281.203 241.796L276.217 247.826L271.321 254.09L270.565 253.406Z" fill="black"/>
<rect y="214" width="300" height="15" rx="2" fill="#D9D9D9"/>
<rect x="174" y="101" width="100" height="97" fill="#D9D9D9"/>
<path d="M224 86L284.622 101.75H163.378L224 86Z" fill="#D9D9D9"/>
<rect x="86.0002" y="1" width="16" height="198" stroke="black" stroke-width="2"/>
<line x1="54.0001" y1="17" x2="54.0001" y2="32" stroke="black" stroke-width="2"/>
<line x1="192" y1="33.9937" x2="192" y2="187.007" stroke="black" stroke-width="2"/>
<line x1="202" y1="24" x2="202" y2="34" stroke="black" stroke-width="2"/>
<line x1="87.14" y1="12.9902" x2="53.1399" y2="17.7907" stroke="black" stroke-width="2"/>
<line x1="53.0001" y1="33" x2="203" y2="33" stroke="black" stroke-width="2"/>
<line x1="86.0854" y1="14.0036" x2="203.085" y2="24.0036" stroke="black" stroke-width="2"/>
<rect x="182.5" y="187.5" width="20" height="12" fill="#B02E0C" stroke="black"/>
<line y1="199.5" x2="300" y2="199.5" stroke="black" stroke-width="3"/>
</svg>
